<?xml version="1.0" encoding="utf-8"?>
<!-- Generator: Adobe Illustrator 16.0.0, SVG Export Plug-In . SVG Version: 6.00 Build 0)  -->
<!DOCTYPE svg PUBLIC "-//W3C//DTD SVG 1.1//EN" "http://www.w3.org/Graphics/SVG/1.1/DTD/svg11.dtd">
<svg version="1.1" id="Calque_1" xmlns="http://www.w3.org/2000/svg" xmlns:xlink="http://www.w3.org/1999/xlink" x="0px" y="0px"
	 width="643.5px" height="205.736px" viewBox="0 0 643.5 205.736" enable-background="new 0 0 643.5 205.736" xml:space="preserve">
<title>Secondary_logo_foodpanda_horizontal_white_rgb</title>
<desc>Created with Sketch.</desc>
<g id="Page-1">
	<g id="Secondary_logo_foodpanda_horizontal_white_rgb">
		<path id="Fill-3" fill="#FFFFFE" d="M139.303,84.666h9.089v-8.427c0-10.226,5.681-17.042,17.043-17.042l5.68,1.136v10.226
			l-6.249-1.137c-3.409,0-5.113,2.272-5.113,5.68v9.564h11.361v10.226h-11.361v43.174h-11.362V94.892h-9.089V84.666"/>
		<path id="Fill-4" fill="#FFFFFE" d="M200.587,128.977c10.794,0,16.475-7.953,16.475-17.61s-5.681-17.611-16.475-17.611
			c-10.793,0-16.475,7.954-16.475,17.611S189.793,128.977,200.587,128.977z M200.587,83.53c14.77,0,27.836,11.362,27.836,27.836
			s-13.066,27.836-27.836,27.836c-14.771,0-27.836-11.361-27.836-27.836S185.816,83.53,200.587,83.53L200.587,83.53z"/>
		<path id="Fill-5" fill="#FFFFFE" d="M261.278,128.977c10.794,0,16.475-7.953,16.475-17.61s-5.681-17.611-16.475-17.611
			c-10.793,0-16.474,7.954-16.474,17.611S250.485,128.977,261.278,128.977z M261.278,83.53c14.77,0,27.836,11.362,27.836,27.836
			s-13.066,27.836-27.836,27.836s-27.836-11.361-27.836-27.836S246.508,83.53,261.278,83.53L261.278,83.53z"/>
		<path id="Fill-6" fill="#FFFFFE" d="M321.969,93.756c-10.792,0-16.586,7.954-16.586,17.611s5.794,17.61,16.586,17.61
			c9.658,0,16.476-7.953,16.476-17.61S331.627,93.756,321.969,93.756z M348.669,138.066h-10.225l-1.137-4.544l-0.567-0.568
			l-0.569,0.568c-3.408,3.408-9.088,5.681-14.77,5.681c-14.771,0-27.269-11.361-27.269-27.836s12.498-27.836,27.269-27.836
			c5.567,0,11.361,2.273,14.77,5.681l0.569,0.568l0.567-0.568V59.197h11.362V138.066L348.669,138.066z"/>
		<path id="Fill-7" fill="#FFFFFE" d="M386.763,128.977c10.793,0,16.474-7.953,16.474-17.61s-5.681-17.611-16.474-17.611
			c-9.659,0-16.475,7.954-16.475,17.611S377.105,128.977,386.763,128.977z M360.063,84.666h10.226l1.022,4.544l0.682,0.568
			l0.568-0.568c3.408-3.408,9.089-5.681,14.77-5.681c14.771,0,27.268,11.362,27.268,27.836s-12.498,27.836-27.268,27.836
			c-5.567,0-11.362-2.272-14.77-5.681l-0.568-0.568l-0.682,0.568v28.631h-11.248V84.666L360.063,84.666z"/>
		<path id="Fill-8" fill="#FFFFFE" d="M438.409,129.082c3.74,0,7.057-1.175,9.838-3.528c2.888-2.46,4.277-5.776,4.277-10.162v-1.176
			h-9.731c-6.843,0-11.122,3.208-11.122,8.342C431.67,126.408,434.022,129.082,438.409,129.082z M443.221,104.911h9.303v-2.354
			c0-6.417-4.384-9.411-10.481-9.411c-4.919,0-8.234,2.353-10.052,7.166l-10.16-2.139c2.246-9.091,10.054-14.866,20.319-14.866
			c14.333,0,21.498,7.059,21.498,21.284v33.476h-9.409l-1.072-7.059c-3.74,5.241-9.302,7.915-16.686,7.915
			c-9.517,0-16.576-5.669-16.576-16.364C419.905,111.542,429.211,104.911,443.221,104.911L443.221,104.911z"/>
		<path id="Fill-9" fill="#FFFFFE" d="M474.132,84.666h10.223l1.14,4.544l0.565,0.568l0.57-0.568
			c2.269-3.408,7.953-5.681,12.497-5.681c13.637,0,21.59,9.089,21.59,21.588v32.948h-11.362v-32.948
			c-0.341-7.272-3.863-11.362-11.362-11.362c-6.707,0-12.274,5.453-12.498,12.043v32.267h-11.362V84.666"/>
		<path id="Fill-10" fill="#FFFFFE" d="M555.874,93.756c-10.792,0-16.588,7.954-16.588,17.611s5.796,17.61,16.588,17.61
			c9.657,0,16.476-7.953,16.476-17.61S565.531,93.756,555.874,93.756z M582.577,138.066h-10.228l-1.135-4.544l-0.57-0.568
			l-0.569,0.568c-3.405,3.408-9.088,5.681-14.767,5.681c-14.771,0-27.269-11.361-27.269-27.836s12.497-27.836,27.269-27.836
			c5.567,0,11.362,2.273,14.767,5.681l0.569,0.568l0.57-0.568V59.197h11.362V138.066L582.577,138.066z"/>
		<path id="Fill-11" fill="#FFFFFE" d="M610.108,129.082c3.746,0,7.062-1.175,9.843-3.528c2.888-2.46,4.276-5.776,4.276-10.162
			v-1.176h-9.73c-6.848,0-11.125,3.208-11.125,8.342C603.372,126.408,605.725,129.082,610.108,129.082z M614.925,104.911h9.302
			v-2.354c0-6.417-4.383-9.411-10.481-9.411c-4.918,0-8.235,2.353-10.052,7.166l-10.159-2.139
			c2.245-9.091,10.052-14.866,20.319-14.866c14.333,0,21.497,7.059,21.497,21.284v33.476h-9.41l-1.072-7.059
			c-3.745,5.241-9.306,7.915-16.685,7.915c-9.516,0-16.578-5.669-16.578-16.364C591.607,111.542,600.913,104.911,614.925,104.911
			L614.925,104.911z"/>
		<path id="Fill-12" fill="#FFFFFE" d="M42.305,83.269c-1.392,0-2.518,1.126-2.518,2.518c0,1.392,1.126,2.517,2.518,2.517
			c1.391,0,2.518-1.125,2.518-2.517C44.823,84.395,43.696,83.269,42.305,83.269z M78.418,83.269c-1.391,0-2.518,1.126-2.518,2.518
			c0,1.392,1.126,2.517,2.518,2.517c1.392,0,2.518-1.125,2.518-2.517C80.936,84.395,79.81,83.269,78.418,83.269z M42.305,83.269
			c-1.392,0-2.518,1.126-2.518,2.518c0,1.392,1.126,2.517,2.518,2.517c1.391,0,2.518-1.125,2.518-2.517
			C44.823,84.395,43.696,83.269,42.305,83.269z M78.418,83.269c-1.391,0-2.518,1.126-2.518,2.518c0,1.392,1.126,2.517,2.518,2.517
			c1.392,0,2.518-1.125,2.518-2.517C80.936,84.395,79.81,83.269,78.418,83.269z M42.305,88.304c1.391,0,2.518-1.125,2.518-2.517
			c0-1.392-1.127-2.518-2.518-2.518c-1.392,0-2.518,1.126-2.518,2.518C39.787,87.179,40.913,88.304,42.305,88.304z M78.418,83.269
			c-1.391,0-2.518,1.126-2.518,2.518c0,1.392,1.126,2.517,2.518,2.517c1.392,0,2.518-1.125,2.518-2.517
			C80.936,84.395,79.81,83.269,78.418,83.269z M19.422,62.109c0-4.969,4.02-8.99,9.012-8.99c3.048,0,5.742,1.524,7.376,3.866
			c-0.265,0.155-0.53,0.309-0.795,0.486c-0.619,0.375-1.237,0.751-1.833,1.17c-0.066,0.022-0.132,0.066-0.198,0.132
			c-0.597,0.398-1.171,0.818-1.745,1.259c-0.619,0.464-1.237,0.928-1.834,1.436c-0.596,0.486-1.17,0.994-1.745,1.524
			c-0.574,0.508-1.126,1.038-1.678,1.59c-0.552,0.552-1.083,1.104-1.59,1.679c-0.53,0.574-1.039,1.148-1.524,1.745
			c-0.199,0.221-0.397,0.442-0.574,0.685C20.527,67.034,19.422,64.716,19.422,62.109z M91.737,53.119
			c4.992,0,9.012,4.021,9.012,8.99c0,2.607-1.104,4.926-2.872,6.582c-0.177-0.243-0.375-0.464-0.574-0.685
			c-0.487-0.596-0.995-1.171-1.524-1.745c-0.508-0.575-1.039-1.127-1.591-1.679c-0.552-0.552-1.105-1.082-1.679-1.59
			c-0.574-0.53-1.148-1.038-1.745-1.524c-0.597-0.508-1.215-0.972-1.833-1.436c-0.574-0.441-1.149-0.861-1.745-1.259
			c-0.066-0.066-0.133-0.11-0.199-0.132c-0.597-0.419-1.215-0.795-1.833-1.17c-0.265-0.177-0.531-0.331-0.795-0.486
			C85.994,54.643,88.689,53.119,91.737,53.119z M85.906,108.117c-3.335-0.022-4.992-1.723-6.03-5.875
			c-1.039-4.152-4.55-8.924-9.034-14.047c-4.505-5.125,0.088-10.028,0.088-10.028c3.645-4.793,12.921-3.159,17.118-0.376
			c4.175,2.761,9.277,8.769,8.459,16.986C95.713,102.993,89.241,108.139,85.906,108.117z M71.836,110.967
			c0,5.765-5.323,10.426-11.861,10.426c-6.538,0-11.861-4.661-11.861-10.426H71.836z M31.901,77.791
			c4.197-2.783,13.474-4.417,17.119,0.376c0,0,4.593,4.903,0.088,10.028c-4.484,5.124-7.996,9.895-9.034,14.047
			c-1.038,4.152-2.695,5.853-6.03,5.875c-3.335,0.022-9.807-5.125-10.602-13.341C22.625,86.56,27.727,80.552,31.901,77.791z
			 M59.975,99.614c2.187,0,8.371,0.398,8.371,2.386c0,3.6-7.642,6.184-8.371,5.985c-0.729,0.199-8.394-2.386-8.394-5.985
			C51.582,100.011,57.788,99.614,59.975,99.614z M108.26,95.948c-0.022-0.663-0.067-1.303-0.133-1.944
			c-0.022-0.155-0.022-0.288-0.044-0.442c-0.088-0.751-0.177-1.48-0.287-2.231c-0.155-0.95-0.332-1.899-0.53-2.849
			c-0.133-0.619-0.288-1.237-0.442-1.855c-0.199-0.773-0.419-1.524-0.641-2.275v-0.022c-0.243-0.75-0.508-1.501-0.773-2.23
			c-0.265-0.729-0.552-1.458-0.861-2.187c-0.596-1.458-1.281-2.849-2.032-4.218c-0.729-1.37-1.546-2.695-2.408-3.976
			c0.088-0.067,0.177-0.155,0.243-0.244c0.221-0.176,0.398-0.354,0.597-0.574l0.022-0.022c0.088-0.088,0.177-0.176,0.243-0.265
			c0.199-0.221,0.398-0.442,0.575-0.685c0.088-0.088,0.154-0.199,0.22-0.287c0.221-0.287,0.42-0.574,0.597-0.884
			c0.044-0.066,0.066-0.11,0.11-0.154c0.022-0.044,0.044-0.066,0.067-0.111c0.021-0.021,0.021-0.066,0.043-0.088
			c0.155-0.31,0.332-0.619,0.464-0.928c0.198-0.397,0.375-0.817,0.508-1.258c0.066-0.155,0.11-0.332,0.154-0.508
			c0.044-0.155,0.089-0.31,0.133-0.486c0.043-0.199,0.11-0.376,0.132-0.574c0.067-0.31,0.133-0.641,0.155-0.972
			c0.022-0.044,0.022-0.11,0.022-0.155c0.022-0.132,0.022-0.243,0.044-0.375c0.021-0.332,0.044-0.685,0.044-1.039
			c0-7.023-5.698-12.722-12.745-12.722c-0.398,0-0.795,0.022-1.192,0.066c-0.155,0.023-0.332,0.023-0.486,0.066
			c-0.331,0.022-0.64,0.088-0.95,0.154c-0.375,0.067-0.773,0.177-1.126,0.288c-0.089,0.022-0.177,0.044-0.243,0.066
			c-0.332,0.11-0.619,0.22-0.928,0.353c-0.022,0-0.044,0.022-0.066,0.022c-0.375,0.155-0.729,0.332-1.06,0.53
			c-0.309,0.155-0.597,0.331-0.884,0.53c-0.088,0.044-0.154,0.088-0.221,0.155c-0.265,0.177-0.552,0.376-0.795,0.596
			c-0.088,0.044-0.199,0.11-0.287,0.243c-0.243,0.177-0.464,0.375-0.664,0.575c-0.11,0.088-0.198,0.199-0.264,0.287l-0.022,0.022
			c-0.222,0.221-0.42,0.442-0.619,0.685c-0.265,0.31-0.508,0.641-0.729,0.972c-0.066,0.066-0.111,0.132-0.154,0.199
			c-0.729-0.354-1.458-0.685-2.187-0.972c-0.729-0.31-1.458-0.597-2.209-0.862c-0.464-0.176-0.949-0.354-1.436-0.486
			c-0.419-0.176-0.839-0.309-1.258-0.419c-0.42-0.133-0.84-0.243-1.282-0.354c-0.309-0.088-0.597-0.176-0.906-0.243
			c-0.42-0.11-0.839-0.199-1.259-0.287c-0.596-0.155-1.193-0.265-1.811-0.375c-0.199-0.044-0.42-0.088-0.641-0.11
			c-0.552-0.088-1.126-0.177-1.701-0.243c-0.331-0.066-0.662-0.088-0.994-0.133c-0.751-0.088-1.502-0.154-2.274-0.176
			c-0.088-0.022-0.177-0.022-0.243-0.022c-0.928-0.066-1.833-0.088-2.761-0.088s-1.833,0.022-2.761,0.088
			c-0.067,0-0.155,0-0.243,0.022c-0.773,0.022-1.524,0.088-2.275,0.176c-0.331,0.044-0.663,0.067-0.993,0.133
			c-0.575,0.066-1.149,0.155-1.701,0.243c-0.222,0.022-0.442,0.066-0.641,0.11c-0.597,0.11-1.215,0.221-1.789,0.375
			c-0.442,0.066-0.861,0.177-1.281,0.287c-0.31,0.066-0.597,0.154-0.906,0.243c-0.441,0.11-0.862,0.221-1.281,0.354
			c-0.42,0.11-0.84,0.243-1.259,0.419c-0.486,0.133-0.972,0.31-1.436,0.486c-0.751,0.265-1.48,0.552-2.208,0.862
			c-0.729,0.287-1.458,0.618-2.187,0.972c-0.044-0.066-0.088-0.133-0.154-0.199c-0.221-0.332-0.464-0.663-0.729-0.972
			c-0.199-0.243-0.397-0.464-0.619-0.685L37.6,53.318c-0.066-0.087-0.154-0.199-0.265-0.287c-0.199-0.199-0.419-0.398-0.663-0.575
			c-0.088-0.133-0.199-0.199-0.288-0.243c-0.242-0.22-0.529-0.419-0.794-0.596c-0.066-0.066-0.133-0.11-0.221-0.155
			c-0.287-0.199-0.574-0.375-0.883-0.53c-0.332-0.198-0.685-0.375-1.061-0.53c-0.022,0-0.044-0.022-0.066-0.022
			c-0.309-0.133-0.596-0.243-0.927-0.353c-0.066-0.022-0.155-0.044-0.243-0.066c-0.354-0.111-0.751-0.221-1.127-0.288
			c-0.309-0.066-0.618-0.132-0.95-0.154c-0.154-0.043-0.331-0.043-0.486-0.066c-0.397-0.044-0.794-0.066-1.192-0.066
			c-7.046,0-12.746,5.699-12.746,12.722c0,0.354,0.023,0.707,0.045,1.039c0.022,0.132,0.022,0.243,0.044,0.375
			c0,0.044,0,0.111,0.022,0.155c0.022,0.331,0.088,0.663,0.155,0.972c0.022,0.198,0.088,0.375,0.132,0.574
			c0.044,0.176,0.088,0.332,0.133,0.486c0.044,0.176,0.088,0.353,0.155,0.508c0.132,0.441,0.309,0.861,0.508,1.258
			c0.132,0.309,0.309,0.618,0.464,0.928c0.022,0.022,0.022,0.066,0.044,0.088c0.022,0.044,0.044,0.066,0.066,0.111
			c0.044,0.044,0.067,0.088,0.111,0.154c0.177,0.31,0.375,0.597,0.596,0.884c0.067,0.088,0.133,0.199,0.222,0.287
			c0.176,0.243,0.375,0.464,0.574,0.685c0.067,0.089,0.155,0.177,0.243,0.265l0.022,0.022c0.199,0.22,0.375,0.397,0.597,0.574
			c0.066,0.088,0.154,0.177,0.242,0.244c-0.861,1.28-1.678,2.606-2.408,3.976c-0.751,1.369-1.435,2.761-2.032,4.218
			c-0.309,0.729-0.596,1.458-0.861,2.187c-0.266,0.729-0.53,1.48-0.773,2.23v0.022c-0.221,0.751-0.442,1.502-0.641,2.275
			c-0.155,0.618-0.309,1.237-0.442,1.855c-0.198,0.95-0.375,1.899-0.53,2.849c-0.11,0.751-0.2,1.48-0.288,2.231
			c-0.021,0.154-0.021,0.287-0.044,0.442c-0.066,0.641-0.111,1.281-0.133,1.944c-0.066,0.905-0.088,1.833-0.088,2.739
			c0,9.166,2.562,17.736,7.002,25.025c0.331,0.531,0.662,1.083,1.016,1.612c0.442,0.664,0.884,1.304,1.348,1.944
			c0.949,1.259,1.921,2.474,2.981,3.645c0.53,0.575,1.061,1.149,1.613,1.701c0.861,0.884,1.767,1.723,2.717,2.562
			c0.486,0.42,0.972,0.818,1.458,1.215c3.423,2.739,7.245,5.036,11.331,6.759c0.022,0,0.022,0,0.022,0
			c1.436,0.619,2.916,1.171,4.417,1.635c4.528,1.413,9.365,2.165,14.357,2.165c4.991,0,9.829-0.751,14.356-2.165
			c1.503-0.464,2.982-1.016,4.418-1.635c0,0,0,0,0.022,0c4.086-1.723,7.908-4.02,11.331-6.759c0.486-0.397,0.972-0.795,1.458-1.215
			c0.95-0.839,1.856-1.678,2.717-2.562c0.552-0.552,1.083-1.126,1.612-1.701c1.06-1.17,2.033-2.386,2.982-3.645
			c0.464-0.64,0.905-1.28,1.348-1.944c0.353-0.529,0.685-1.082,1.016-1.612c4.439-7.289,7.001-15.859,7.001-25.025
			C108.347,97.781,108.325,96.853,108.26,95.948z M42.305,83.269c-1.392,0-2.518,1.126-2.518,2.518c0,1.392,1.126,2.517,2.518,2.517
			c1.391,0,2.518-1.125,2.518-2.517C44.823,84.395,43.696,83.269,42.305,83.269z M78.418,83.269c-1.391,0-2.518,1.126-2.518,2.518
			c0,1.392,1.126,2.517,2.518,2.517c1.392,0,2.518-1.125,2.518-2.517C80.936,84.395,79.81,83.269,78.418,83.269z M78.418,83.269
			c-1.391,0-2.518,1.126-2.518,2.518c0,1.392,1.126,2.517,2.518,2.517c1.392,0,2.518-1.125,2.518-2.517
			C80.936,84.395,79.81,83.269,78.418,83.269z M42.305,83.269c-1.392,0-2.518,1.126-2.518,2.518c0,1.392,1.126,2.517,2.518,2.517
			c1.391,0,2.518-1.125,2.518-2.517C44.823,84.395,43.696,83.269,42.305,83.269z M42.305,83.269c-1.392,0-2.518,1.126-2.518,2.518
			c0,1.392,1.126,2.517,2.518,2.517c1.391,0,2.518-1.125,2.518-2.517C44.823,84.395,43.696,83.269,42.305,83.269z M42.305,83.269
			c-1.392,0-2.518,1.126-2.518,2.518c0,1.392,1.126,2.517,2.518,2.517c1.391,0,2.518-1.125,2.518-2.517
			C44.823,84.395,43.696,83.269,42.305,83.269L42.305,83.269z"/>
	</g>
</g>
</svg>
